<svg width="37" height="38" viewBox="0 0 37 38" fill="none" xmlns="http://www.w3.org/2000/svg">
<g clip-path="url(#clip0_3_1136)">
<path d="M17.2346 0.0567688C17.8574 0.00820652 18.4882 -0.00798091 19.1189 0.00820652C20.0729 0.0405814 21.0268 0.161987 21.9651 0.331955C32.8214 2.37967 39.5387 14.0427 36.1012 24.8397C33.1999 33.9613 24.2041 39.4732 15.1847 37.6521C7.67121 36.1305 2.83039 31.4199 0.607074 23.8928C0.260175 22.7192 0.126145 21.497 0 20.283C0 19.425 0 18.559 0 17.7011C0.0630727 17.1669 0.126145 16.6327 0.204986 16.1066C1.45856 7.41396 8.83806 0.71236 17.2346 0.0567688ZM18.5039 7.04974C16.525 7.04974 15.1374 8.69277 15.3897 10.7324C15.6105 12.5454 15.7997 14.3584 15.9968 16.1795C16.2885 18.907 16.5802 21.6265 16.8798 24.3541C16.9744 25.2039 17.6682 25.8272 18.4882 25.8353C19.3002 25.8353 20.0177 25.2201 20.1123 24.3784C20.3646 22.1931 20.5932 19.9997 20.8297 17.8063C21.082 15.4591 21.3186 13.1038 21.6024 10.7567C21.8468 8.71705 20.4828 7.05783 18.5118 7.04974H18.5039ZM18.5276 27.6644C17.6288 27.6482 16.8798 28.3848 16.8719 29.2994C16.8562 30.2221 17.5736 30.9829 18.4645 30.9991C19.3633 31.0152 20.1123 30.2787 20.1202 29.3641C20.1359 28.4414 19.4185 27.6725 18.5276 27.6644Z" fill="white"/>
</g>
<defs>
<clipPath id="clip0_3_1136">
<rect width="37" height="38" fill="white"/>
</clipPath>
</defs>
</svg>
