<svg width="425" height="235" viewBox="0 0 425 235" fill="none" xmlns="http://www.w3.org/2000/svg">
<g clip-path="url(#clip0_3_666)">
<path d="M165.975 53.9563C165.975 53.9563 120.883 80.7753 106.107 88.2285C106.107 88.2285 83.3696 93.261 72.9246 97.9751L73.9436 104.091L82.0322 109.187L107.826 118.169L229.155 109.569L305.582 102.179L351.757 84.1515L397.04 96.1277L400.543 96.0003C400.543 96.0003 369.718 63.3844 362.457 57.3963L339.529 57.1415C339.529 57.1415 250.427 48.5416 215.016 52.6186L165.911 53.9563H165.975Z" fill="#2C2C2C"/>
<path d="M219.601 112.436L201.068 112.945L172.216 56.4408L190.75 55.9312L219.601 112.436Z" fill="#383838"/>
<path d="M224.442 53.6378L215.971 109.887L240.746 107.976V49.2423L225.334 49.6883L224.442 53.6378Z" fill="#141414"/>
<path d="M322.141 61.1548L337.427 88.993L357.425 79.756C357.425 79.756 359.527 78.482 359.591 77.7812C359.654 75.4879 353.222 71.0287 353.222 71.0287L322.141 61.1548Z" fill="#141414"/>
<path d="M106.17 88.2285L86.363 104.664C86.363 104.664 74.9626 107.594 74.0072 104.091C74.0072 104.091 71.7781 99.8224 76.7459 97.4654C76.7459 97.4654 96.5533 90.267 106.17 88.2285Z" fill="#141414"/>
<path d="M297.812 104.982L279.278 105.492L250.427 48.9875L268.897 48.4779L297.812 104.982Z" fill="#383838"/>
<path d="M192.279 113.136L181.706 113.455L156.167 64.7858L166.739 64.531L192.279 113.136Z" fill="#383838"/>
<path d="M7.19699 195.823C7.19699 195.823 9.68088 206.334 26.877 205.888L323.161 207.48L411.371 205.06L413.791 199.709L395.321 161.423L372.01 151.04L349.21 151.677L330.931 152.186L312.716 170.787L101.012 186.076C101.012 186.076 92.0951 152.25 49.3594 153.397C49.3594 153.397 20.6355 161.168 7.1333 195.95L7.19699 195.823Z" fill="#141414"/>
<path d="M314.117 58.7341L315.9 98.1025L318.702 96.5099L316.792 59.4985L314.117 58.7341Z" fill="#141414"/>
<path d="M99.101 202.384H105.343L279.788 202.894H312.397H313.289C313.289 202.766 313.289 202.575 313.289 202.448C312.588 177.413 332.523 156.518 357.808 155.817C383.092 155.117 404.174 174.864 404.811 199.9C404.811 200.027 404.811 200.218 404.811 200.346L413.472 200.091C413.472 200.091 425.51 184.802 421.752 176.075C421.752 176.075 427.548 162.697 423.663 148.683C423.663 148.683 419.905 139.063 412.581 129.572C412.581 129.572 413.982 116.322 412.963 111.926C412.963 111.926 412.772 105.747 400.161 95.5544L352.267 82.7501C352.267 82.7501 317.429 97.784 308.639 98.9306C299.85 100.077 303.417 101.734 227.817 107.339C227.817 107.339 136.359 114.283 116.998 113.901C113.176 113.837 104.069 113.391 102.731 108.613C102.349 107.276 102.922 105.811 103.687 104.6C105.788 101.479 113.367 94.9173 116.425 92.7514C123.685 87.5278 126.615 86.636 134.003 81.6034C144.257 74.6598 155.466 69.1177 167.121 64.9133C174.509 62.2377 182.152 60.0718 189.795 58.3519C214.252 52.9371 239.536 52.2364 264.503 53.5104C285.647 54.5934 306.792 57.0778 327.237 62.5563C333.86 64.3399 340.612 66.4421 347.49 66.1873C354.368 65.9325 347.745 66.1873 347.872 66.1873C354.623 65.8051 361.629 62.4289 364.368 56.2497C364.686 55.4852 364.941 54.6571 364.877 53.829C364.622 51.2808 361.502 50.1979 359.018 49.752C321.505 42.9358 283.227 40.8973 245.077 41.5343C218.264 41.9802 190.941 43.8913 166.102 53.9564C166.102 55.3578 166.23 56.6956 166.293 58.097C166.293 58.543 161.771 60.7089 161.198 61.0274C159.415 62.0466 157.632 63.0659 155.785 64.1488C152.282 66.1236 148.842 68.1621 145.34 70.1369C132.92 77.2716 120.501 84.4063 108.018 91.5411C104.005 93.8344 99.9289 96.064 95.9802 98.4847C92.2862 100.778 88.7196 103.836 84.3887 104.664C82.0959 105.11 76.8733 105.556 74.899 104.027C74.899 104.027 69.4854 99.7588 88.7196 93.0699C88.7196 93.0699 101.84 89.1841 106.234 88.1648C106.234 88.1648 37.8317 100.587 10.5089 130.464C7.64286 135.56 4.77683 140.72 1.78343 145.752C-1.59212 151.549 0.828085 159.002 2.61139 165.054C3.43935 167.793 4.3947 170.724 4.58577 173.654C4.77683 176.712 2.80246 179.578 3.94887 182.7C1.91081 185.184 3.69411 189.198 5.09528 191.491C5.09528 191.491 8.5982 201.811 17.26 202.512V202.32C17.26 202.002 17.26 201.62 17.26 201.301C17.3874 173.081 34.3288 156.263 56.9385 155.626C79.5483 154.989 98.5278 176.521 99.1647 199.9C99.8016 223.279 99.1647 201.556 99.1647 202.384H99.101Z" fill="#FFD500"/>
<path d="M292.845 132.502C293.354 132.502 293.736 132.884 293.736 133.394C293.736 133.904 293.354 134.286 292.845 134.286C292.335 134.286 291.953 133.904 291.953 133.394C291.953 132.884 292.335 132.502 292.845 132.502ZM292.845 134.095C293.227 134.095 293.545 133.776 293.545 133.394C293.545 133.012 293.227 132.693 292.845 132.693C292.462 132.693 292.144 133.012 292.144 133.394C292.144 133.776 292.462 134.095 292.845 134.095ZM292.462 132.884H292.845C293.099 132.884 293.227 132.948 293.227 133.203C293.227 133.458 293.099 133.458 292.972 133.458L293.227 133.904H292.972L292.717 133.521H292.653V133.967H292.462V133.012V132.884ZM292.845 133.266C292.972 133.266 293.036 133.266 293.036 133.139C293.036 133.012 292.908 133.012 292.845 133.012H292.717V133.266H292.908H292.845Z" fill="#23A960"/>
<path d="M280.425 130.782C280.298 130.4 280.17 130.018 280.17 129.635C280.17 128.298 280.998 126.896 282.845 126.896C284.692 126.896 285.584 128.234 285.584 129.572C285.584 130.909 285.584 130.081 285.52 130.336L283.546 130.527C283.737 130.272 283.801 129.954 283.801 129.635C283.801 129.189 283.609 128.489 282.909 128.489C282.909 128.489 282.909 128.489 282.845 128.489C282.145 128.489 281.954 129.189 281.954 129.699C281.954 130.209 282.017 130.464 282.272 130.718L280.361 130.909L280.425 130.782ZM287.813 130.081V129.381L288.195 130.018L290.997 129.763V126.96H289.342V129.189L288.068 126.96H286.093V130.209L287.813 130.018V130.081ZM263.611 131.61C263.929 131.292 264.184 130.655 264.184 130.209H262.465C262.337 130.464 262.146 130.909 261.637 130.909C261.127 130.909 261.191 130.782 261.127 130.718C260.809 130.4 260.809 129.954 260.809 129.763V129.635C260.809 129.444 260.809 128.998 261.127 128.68C261.191 128.616 261.382 128.489 261.637 128.489C262.146 128.489 262.337 128.935 262.465 129.189H264.184C264.184 128.744 263.866 128.107 263.547 127.788C263.038 127.278 262.337 126.96 261.509 126.96C259.79 126.96 258.962 128.361 258.898 129.572V129.635C258.898 130.973 259.79 132.311 261.573 132.311C263.356 132.311 263.101 131.992 263.611 131.483M264.63 132.12V129.444C264.63 128.871 264.63 128.107 265.203 127.533C265.585 127.151 266.222 126.896 266.923 126.896C267.623 126.896 268.324 127.087 268.706 127.47C269.216 127.979 269.216 128.552 269.279 129.062V131.674L267.496 131.865V130.846H266.35V131.992L264.566 132.184L264.63 132.12ZM266.35 129.635H267.496V129.126C267.496 128.935 267.496 128.744 267.369 128.616C267.241 128.489 267.05 128.489 266.923 128.489C266.668 128.489 266.541 128.552 266.477 128.616C266.35 128.744 266.35 128.935 266.35 129.126V129.635ZM269.916 131.674V127.087H272.4C272.782 127.087 273.292 127.087 273.61 127.215C274.311 127.47 274.502 128.17 274.566 128.68V128.807C274.566 129.253 274.438 129.572 274.183 129.89C273.992 130.081 273.865 130.145 273.674 130.209C273.674 130.209 274.056 130.782 274.311 131.228L272.4 131.419C272.145 131.037 271.891 130.591 271.891 130.591H271.7V131.546L269.853 131.738L269.916 131.674ZM271.7 129.253H272.145C272.591 129.253 272.719 129.126 272.719 128.871V128.744C272.719 128.489 272.591 128.361 272.145 128.361H271.7V129.253ZM275.139 131.164V127.024H278.068C278.387 127.024 278.96 127.024 279.342 127.47C279.597 127.661 279.724 128.043 279.724 128.425C279.724 128.807 279.597 129.126 279.342 129.381C279.342 129.381 279.279 129.444 279.215 129.508C279.342 129.508 279.406 129.635 279.533 129.699C279.788 129.954 279.915 130.272 279.915 130.591C279.915 130.909 279.915 130.718 279.915 130.782L275.139 131.228V131.164ZM276.922 128.935H277.559C277.686 128.935 277.75 128.935 277.814 128.807C277.814 128.807 277.877 128.68 277.877 128.616C277.877 128.298 277.75 128.234 277.495 128.234H276.858V128.935H276.922ZM276.922 130.655H277.686C277.814 130.655 277.877 130.655 277.941 130.527C277.941 130.527 278.005 130.4 278.005 130.336C278.005 130.018 277.877 129.954 277.623 129.954H276.858V130.655H276.922ZM264.566 132.629V134.986L263.229 132.629H261.573V137.343H263.101V134.986L264.503 137.343H266.222V132.629H264.694H264.566ZM284.374 137.216H282.463C282.463 137.216 281.635 135.815 281.571 135.815H281.38V137.28H279.661V132.566H282.017C282.399 132.566 282.845 132.566 283.164 132.693C283.801 132.948 283.992 133.585 284.055 134.095V134.222C284.055 134.604 283.928 134.986 283.673 135.241C283.546 135.432 283.355 135.496 283.227 135.56C283.227 135.623 284.374 137.28 284.374 137.28M282.399 134.286V134.158C282.399 133.904 282.272 133.776 281.89 133.84H281.444V134.668H281.89C282.272 134.668 282.399 134.541 282.399 134.286ZM271.317 136.961C271.7 137.343 272.336 137.535 272.973 137.535C273.61 137.535 274.183 137.343 274.566 136.961C275.139 136.452 275.139 135.687 275.139 135.178V132.693H273.483V135.623C273.483 135.815 273.483 136.006 273.355 136.133C273.355 136.133 273.164 136.261 272.973 136.261C272.782 136.261 272.719 136.261 272.591 136.133C272.464 136.006 272.464 135.878 272.464 135.687V132.757H270.808V135.56C270.808 136.006 270.808 136.579 271.317 137.025M276.667 137.407H278.323V133.967H279.47V132.629H275.521V133.967H276.667V137.343V137.407ZM290.997 135.942V132.566H289.342V137.28H292.781V135.942H290.997ZM270.489 136.261H268.26V135.623H270.235V134.413H268.26V133.903H270.426V132.693H266.668V137.471H270.489V136.261ZM288.896 134.477V137.28H287.303V136.069H286.221V137.28H284.565V134.795C284.565 134.286 284.565 133.585 285.074 133.012C285.456 132.629 286.03 132.438 286.667 132.438C287.303 132.438 287.94 132.629 288.323 133.012C288.768 133.458 288.832 133.967 288.832 134.477M287.176 134.477C287.176 134.286 287.176 134.095 287.049 133.967C286.921 133.84 286.73 133.84 286.667 133.84C286.476 133.84 286.348 133.904 286.284 133.967C286.157 134.095 286.157 134.222 286.157 134.477V134.923H287.24V134.477H287.176Z" fill="#23A960"/>
<path d="M261.318 155.817V155.053C261.318 154.416 260.872 154.225 260.363 154.225C259.853 154.225 260.299 154.225 260.235 154.225C259.981 154.225 259.79 154.288 259.599 154.416V154.862C259.79 154.734 260.044 154.734 260.235 154.734C260.426 154.734 260.681 154.798 260.681 155.053C260.618 155.053 260.49 155.053 260.363 155.053C259.981 155.053 259.344 155.117 259.344 155.754C259.344 156.391 259.726 156.391 260.108 156.391C260.49 156.391 260.554 156.263 260.745 156.008C260.745 156.136 260.872 156.263 261 156.263H261.382C261.382 156.072 261.382 155.945 261.382 155.817M260.299 155.881C260.108 155.881 260.044 155.817 260.044 155.69C260.044 155.562 260.235 155.435 260.49 155.435C260.745 155.435 260.681 155.435 260.809 155.435C260.809 155.69 260.618 155.881 260.363 155.881H260.299Z" fill="#23A960"/>
<path d="M284.947 155.626V154.862C284.947 154.225 284.501 154.034 283.991 154.034C283.482 154.034 283.928 154.034 283.864 154.034C283.609 154.034 283.418 154.097 283.227 154.225V154.671C283.418 154.543 283.673 154.543 283.864 154.543C284.055 154.543 284.31 154.607 284.31 154.862C284.246 154.862 284.119 154.862 283.991 154.862C283.609 154.862 282.972 154.925 282.972 155.562C282.972 156.199 283.355 156.199 283.737 156.199C284.119 156.199 284.183 156.072 284.374 155.817C284.374 155.945 284.501 156.072 284.628 156.072H285.01C285.01 155.881 285.01 155.754 285.01 155.626M283.928 155.69C283.737 155.69 283.673 155.626 283.673 155.499C283.673 155.371 283.864 155.244 284.119 155.244C284.374 155.244 284.31 155.244 284.437 155.244C284.437 155.499 284.246 155.69 283.991 155.69H283.928Z" fill="#23A960"/>
<path d="M263.038 154.288C262.719 154.288 262.592 154.48 262.465 154.734V154.352H261.828V156.391H262.273C262.401 156.391 262.528 156.263 262.528 156.136V155.499C262.528 155.117 262.719 154.862 263.038 154.862C263.356 154.862 263.229 154.862 263.292 154.862V154.288C263.292 154.288 263.165 154.288 263.101 154.288" fill="#23A960"/>
<path d="M282.59 154.097C282.272 154.097 282.144 154.288 282.017 154.543V154.161H281.38V156.2H281.826C281.953 156.2 282.081 156.072 282.081 155.945V155.308C282.081 154.925 282.272 154.671 282.59 154.671C282.909 154.671 282.781 154.671 282.845 154.671V154.097C282.845 154.097 282.718 154.097 282.654 154.097" fill="#23A960"/>
<path d="M285.902 153.205H285.456V156.072H286.157V153.46C286.157 153.333 286.029 153.205 285.902 153.205Z" fill="#23A960"/>
<path d="M279.342 154.161H279.724V153.715L280.425 153.524V154.161H280.935V154.671H280.425V155.435C280.425 155.69 280.489 155.817 280.68 155.817C280.871 155.817 280.807 155.817 280.871 155.817V156.263C280.743 156.263 280.616 156.263 280.489 156.263C279.852 156.263 279.724 156.008 279.724 155.499V154.671H279.342V154.161Z" fill="#23A960"/>
<path d="M278.387 154.161V154.989C278.387 155.435 278.259 155.626 277.941 155.626C277.622 155.626 277.622 155.499 277.622 155.117V154.416C277.622 154.288 277.495 154.161 277.368 154.161H276.922V155.435C276.922 155.881 277.177 156.263 277.686 156.2C278.196 156.136 278.259 156.072 278.387 155.754V156.136H279.024V154.097H278.323" fill="#23A960"/>
<path d="M275.202 155.371C275.202 155.626 275.457 155.754 275.776 155.754C276.094 155.754 276.158 155.754 276.412 155.562V156.072C276.221 156.136 275.967 156.199 275.712 156.199C275.075 156.199 274.565 155.817 274.565 155.18C274.565 154.543 275.011 154.161 275.648 154.097C276.285 154.034 276.667 154.607 276.667 155.18V155.308H275.266M276.03 154.925C276.03 154.671 275.903 154.48 275.648 154.48C275.393 154.48 275.266 154.671 275.266 154.925H276.03Z" fill="#23A960"/>
<path d="M288.45 154.989C288.45 155.18 288.513 155.308 288.513 155.308C288.641 155.435 288.704 155.562 289.023 155.562C289.341 155.562 289.405 155.562 289.66 155.435V155.945C289.469 156.008 289.214 156.072 288.959 156.072C288.322 156.072 287.813 155.69 287.813 155.053C287.813 154.352 288.322 153.97 288.959 153.97C289.596 153.97 289.469 153.97 289.723 154.097V154.607C289.532 154.48 289.278 154.48 289.087 154.48C288.768 154.48 288.641 154.607 288.577 154.734C288.577 154.734 288.577 154.862 288.513 155.053L288.45 154.989Z" fill="#23A960"/>
<path d="M273.419 153.524V155.371L272.527 153.588H271.636V156.263H272.018C272.145 156.263 272.273 156.136 272.273 156.008V154.416L273.228 156.263H274.12V153.588H273.483" fill="#23A960"/>
<path d="M270.298 154.225C269.98 154.225 269.725 154.352 269.598 154.671V154.288H268.961V156.327H269.407C269.534 156.327 269.661 156.2 269.661 156.072V155.499C269.661 155.053 269.789 154.862 270.107 154.862C270.426 154.862 270.426 154.989 270.426 155.371V156.327H271.126V155.053C271.126 154.671 270.871 154.225 270.362 154.288" fill="#23A960"/>
<path d="M266.222 155.244C266.222 154.607 266.732 154.225 267.369 154.161C268.005 154.097 268.515 154.543 268.515 155.18C268.515 155.817 268.005 156.263 267.369 156.263C266.732 156.263 266.222 155.881 266.222 155.244ZM267.814 155.244C267.814 154.925 267.687 154.671 267.369 154.671C267.05 154.671 266.923 154.925 266.923 155.244C266.923 155.562 267.05 155.817 267.369 155.817C267.687 155.817 267.814 155.562 267.814 155.244Z" fill="#23A960"/>
<path d="M265.012 154.225C264.757 154.225 264.502 154.288 264.311 154.543V153.651C264.311 153.524 264.184 153.397 264.057 153.397H263.611V156.263H264.248V155.881C264.311 156.072 264.63 156.263 264.948 156.263C265.522 156.263 265.84 155.754 265.84 155.18C265.84 154.607 265.522 154.161 264.948 154.161M264.694 155.754C264.439 155.754 264.248 155.562 264.248 155.244C264.248 154.925 264.439 154.734 264.694 154.734C264.948 154.734 265.139 154.989 265.139 155.244C265.139 155.499 265.012 155.754 264.757 155.817L264.694 155.754Z" fill="#23A960"/>
<path d="M258.962 155.69C258.77 155.754 258.516 155.817 258.325 155.817C257.815 155.817 257.433 155.499 257.433 154.989C257.433 154.48 257.751 154.097 258.261 154.097C258.77 154.097 258.707 154.097 258.962 154.288V153.779C258.834 153.651 258.643 153.588 258.388 153.588C258.388 153.588 258.388 153.588 258.325 153.588C258.325 153.588 258.261 153.588 258.197 153.588C257.306 153.588 256.669 154.097 256.669 154.989C256.669 155.881 257.497 156.327 258.197 156.327C258.197 156.327 258.261 156.327 258.325 156.327C258.516 156.327 258.77 156.2 258.962 156.136V155.69Z" fill="#23A960"/>
<path d="M287.431 155.817C287.431 155.945 287.303 156.136 287.112 156.136C286.921 156.136 286.794 156.008 286.794 155.817C286.794 155.626 286.921 155.499 287.112 155.499C287.303 155.499 287.431 155.626 287.431 155.817Z" fill="#23A960"/>
<path d="M295.456 153.97C295.137 153.97 294.882 154.097 294.755 154.352C294.628 154.097 294.437 153.97 294.118 153.97C293.8 153.97 293.545 154.097 293.418 154.416V154.034H292.781V156.072H293.227C293.354 156.072 293.481 155.945 293.481 155.817V155.244C293.481 154.798 293.609 154.607 293.863 154.607C294.118 154.607 294.118 154.798 294.118 154.989V156.072H294.819V155.244C294.819 154.798 294.946 154.607 295.201 154.607C295.456 154.607 295.456 154.798 295.456 154.989V156.072H295.902C296.029 156.072 296.156 155.945 296.156 155.817V154.862C296.156 154.352 296.029 153.97 295.456 153.97Z" fill="#23A960"/>
<path d="M290.042 155.053C290.042 154.416 290.552 154.034 291.188 153.97C291.825 153.906 292.335 154.352 292.335 154.989C292.335 155.626 291.825 156.072 291.188 156.072C290.552 156.072 290.042 155.69 290.042 155.053ZM291.634 155.053C291.634 154.734 291.507 154.48 291.188 154.48C290.87 154.48 290.743 154.734 290.743 155.053C290.743 155.371 290.87 155.626 291.188 155.626C291.507 155.626 291.634 155.371 291.634 155.053Z" fill="#23A960"/>
<path d="M266.604 122.31C266.477 122.564 266.286 122.883 266.095 123.201C265.33 124.157 264.248 124.475 263.229 123.647C262.273 122.883 262.464 121.673 263.165 120.781C263.42 120.462 263.611 120.335 263.866 120.08L264.63 120.717C264.439 120.844 264.248 120.972 264.057 121.163C263.675 121.609 263.675 122.182 264.057 122.564C264.566 122.947 265.076 122.883 265.394 122.373C265.522 122.182 265.649 121.927 265.776 121.673L266.541 122.31H266.604Z" fill="#23A960"/>
<path d="M264.821 119.252L267.241 117.468L267.751 118.169L266.413 119.188L266.731 119.57L268.069 118.615L268.578 119.316L267.305 120.271L267.559 120.653L268.961 119.634L269.47 120.335L267.05 122.182L264.948 119.316L264.821 119.252Z" fill="#23A960"/>
<path d="M268.324 116.831L270.235 116.003C270.935 115.684 271.508 115.812 271.763 116.449C271.954 116.959 271.763 117.213 271.381 117.532C271.636 117.532 271.827 117.532 272.018 117.659C272.336 117.914 272.527 118.551 272.846 118.806L271.508 119.316C271.381 119.124 271.063 118.615 270.935 118.487C270.808 118.36 270.68 118.296 270.553 118.36H270.362C270.362 118.424 270.808 119.57 270.808 119.57L269.661 120.08L268.26 116.767L268.324 116.831ZM270.107 117.787L270.426 117.659C270.68 117.532 270.872 117.404 270.744 117.086C270.617 116.767 270.426 116.831 270.171 116.959L269.852 117.086L270.107 117.787Z" fill="#23A960"/>
<path d="M275.776 115.812L274.629 116.003L274.948 118.551L273.674 118.742L273.355 116.194L272.209 116.385L272.082 115.302L275.648 114.793L275.776 115.876V115.812Z" fill="#23A960"/>
<path d="M277.686 114.856L277.559 118.487H276.158L276.285 114.793H277.686V114.856Z" fill="#23A960"/>
<path d="M278.641 114.92L281.635 115.621L281.444 116.449L279.788 116.067L279.661 116.64L281.253 117.022L281.062 117.85L279.469 117.468L279.215 118.742L277.877 118.424L278.705 114.856L278.641 114.92Z" fill="#23A960"/>
<path d="M283.609 116.449L282.208 119.825L280.934 119.316L282.335 115.939L283.609 116.449Z" fill="#23A960"/>
<path d="M284.565 116.895L287.112 118.551L286.603 119.252L285.202 118.296L284.947 118.742L286.284 119.634L285.775 120.335L284.437 119.443L284.183 119.825L285.647 120.781L285.138 121.481L282.59 119.761L284.565 116.831V116.895Z" fill="#23A960"/>
<path d="M288.195 119.379L289.532 120.908C290.169 121.673 290.424 122.437 289.278 123.393C288.259 124.284 287.431 123.966 286.73 123.201L285.456 121.736L288.195 119.379ZM287.049 122.182L287.303 122.437C287.622 122.819 287.94 122.692 288.386 122.31C288.832 121.927 289.023 121.609 288.704 121.227L288.513 120.972L287.112 122.182H287.049Z" fill="#23A960"/>
<path d="M272.273 147.09L271.699 146.963V146.644C271.763 146.644 272.336 146.771 272.336 146.771V146.58C272.527 146.007 272.782 145.689 273.419 145.816C273.546 145.816 273.61 145.816 273.674 145.943L273.546 146.262C273.546 146.262 273.419 146.262 273.355 146.198C272.973 146.134 272.91 146.326 272.782 146.644V146.899C272.718 146.899 273.355 147.026 273.355 147.026V147.345C273.292 147.345 272.655 147.217 272.655 147.217L272.145 149.192L271.699 149.065L272.209 147.09H272.273Z" fill="#23A960"/>
<path d="M274.056 145.943H274.502L273.992 149.511H273.546L274.056 145.943Z" fill="#23A960"/>
<path d="M276.858 149.574C276.667 149.574 276.476 149.702 276.094 149.702C275.266 149.702 274.884 149.129 274.884 148.364C274.884 147.663 275.33 147.154 276.03 147.154C276.858 147.154 277.049 147.727 277.049 148.555H275.33C275.33 149.001 275.712 149.32 276.094 149.32C276.413 149.32 276.731 149.192 276.858 149.065V149.511V149.574ZM276.604 148.237C276.604 147.854 276.413 147.536 276.03 147.536C275.585 147.536 275.394 147.854 275.394 148.173H276.604V148.237Z" fill="#23A960"/>
<path d="M279.724 149.256C279.597 149.32 279.406 149.447 279.024 149.511C278.196 149.638 277.75 149.192 277.623 148.428C277.495 147.727 277.877 147.154 278.578 147.09C279.342 146.963 279.724 147.536 279.788 148.3L278.068 148.555C278.132 149.001 278.578 149.32 278.96 149.256C279.279 149.256 279.533 149.001 279.661 148.937V149.383L279.724 149.256ZM279.342 147.982C279.342 147.6 279.024 147.345 278.642 147.409C278.196 147.409 278.068 147.854 278.068 148.173L279.279 147.982H279.342Z" fill="#23A960"/>
<path d="M281.317 146.835L280.68 147.026L281.062 148.3C281.125 148.555 281.317 148.683 281.508 148.619C281.635 148.619 281.699 148.491 281.762 148.428L281.89 148.81C281.826 148.81 281.699 148.937 281.571 149.001C281.126 149.128 280.807 149.001 280.68 148.555L280.298 147.217L279.788 147.345L279.661 147.026L280.17 146.899L280.043 146.389L280.425 146.134L280.616 146.771L281.253 146.58L281.38 146.899L281.317 146.835Z" fill="#23A960"/>
<path d="M289.278 140.274C289.405 140.083 289.596 140.083 289.787 140.21C289.978 140.338 290.042 140.592 289.915 140.783C289.787 140.975 289.596 141.038 289.341 140.847C289.15 140.72 289.087 140.465 289.214 140.274H289.278Z" fill="#23A960"/>
<path d="M288.45 141.484C288.577 141.293 288.832 141.293 289.023 141.484C289.214 141.612 289.214 141.866 289.087 142.057C288.959 142.249 288.704 142.249 288.513 142.057C288.322 141.93 288.322 141.675 288.45 141.484Z" fill="#23A960"/>
<path d="M287.494 142.567C287.622 142.44 287.877 142.44 288.068 142.567C288.259 142.695 288.259 142.949 288.068 143.14C287.94 143.332 287.685 143.268 287.494 143.14C287.303 143.013 287.303 142.758 287.494 142.567Z" fill="#23A960"/>
<path d="M286.412 143.523C286.603 143.395 286.794 143.395 286.985 143.523C287.112 143.714 287.112 143.905 286.985 144.096C286.794 144.223 286.603 144.223 286.412 144.096C286.284 143.905 286.284 143.714 286.412 143.523Z" fill="#23A960"/>
<path d="M285.265 144.414C285.456 144.287 285.647 144.351 285.838 144.542C285.966 144.733 285.966 144.988 285.775 145.115C285.584 145.243 285.393 145.179 285.202 144.988C285.074 144.797 285.074 144.606 285.265 144.414Z" fill="#23A960"/>
<path d="M284.055 145.179C284.246 145.052 284.501 145.179 284.565 145.37C284.692 145.561 284.628 145.816 284.437 145.88C284.246 146.007 283.992 145.88 283.928 145.752C283.8 145.561 283.864 145.306 284.055 145.243V145.179Z" fill="#23A960"/>
<path d="M268.897 145.306C269.088 145.434 269.152 145.625 269.024 145.816C268.897 146.007 268.706 146.071 268.515 146.007C268.324 145.88 268.26 145.689 268.388 145.497C268.515 145.306 268.706 145.243 268.897 145.306Z" fill="#23A960"/>
<path d="M267.623 144.606C267.814 144.733 267.814 144.924 267.687 145.115C267.559 145.306 267.305 145.37 267.114 145.243C266.923 145.115 266.923 144.924 267.05 144.669C267.177 144.478 267.432 144.414 267.623 144.542V144.606Z" fill="#23A960"/>
<path d="M266.477 143.714C266.668 143.841 266.668 144.096 266.477 144.287C266.349 144.478 266.095 144.478 265.904 144.351C265.712 144.223 265.712 143.969 265.904 143.777C266.031 143.586 266.286 143.586 266.477 143.714Z" fill="#23A960"/>
<path d="M265.394 142.758C265.521 142.886 265.521 143.14 265.394 143.332C265.203 143.523 265.012 143.523 264.821 143.332C264.693 143.204 264.693 142.949 264.821 142.758C265.012 142.567 265.203 142.567 265.394 142.758Z" fill="#23A960"/>
<path d="M264.439 141.675C264.566 141.866 264.566 142.057 264.375 142.249C264.184 142.376 263.993 142.376 263.802 142.249C263.675 142.057 263.675 141.866 263.866 141.675C264.057 141.548 264.248 141.548 264.439 141.675Z" fill="#23A960"/>
<path d="M263.547 140.529C263.674 140.72 263.611 140.911 263.42 141.038C263.229 141.166 262.974 141.166 262.847 140.975C262.719 140.783 262.783 140.592 262.974 140.401C263.165 140.274 263.42 140.274 263.547 140.465V140.529Z" fill="#23A960"/>
<path d="M359.4 235C379.098 235 395.066 219.028 395.066 199.326C395.066 179.624 379.098 163.653 359.4 163.653C339.702 163.653 323.734 179.624 323.734 199.326C323.734 219.028 339.702 235 359.4 235Z" fill="#2C2C2C"/>
<path d="M359.018 173.909C344.942 174.291 333.797 186.012 334.179 200.155C334.561 214.233 346.28 225.381 360.419 224.999C374.494 224.616 385.64 212.895 385.258 198.753C384.876 184.611 373.157 173.527 359.018 173.909ZM377.87 209.837L377.233 208.946L371.31 200.218C370.609 199.072 370.928 197.606 372.392 197.288C373.666 197.033 375.45 197.67 376.596 198.052C377.997 198.498 379.398 199.199 380.608 200.027L380.991 200.282C380.927 203.913 379.908 207.353 378.124 210.347L377.806 209.837H377.87ZM350.228 209.009C349.337 209.901 347.49 210.411 346.28 210.729C344.942 211.111 343.541 211.303 342.204 211.303C340.357 208.5 339.21 205.187 338.892 201.683L339.72 202.002L349.528 205.951C350.738 206.461 351.311 207.926 350.228 208.946V209.009ZM362.202 182.636C362.966 181.426 363.922 180.279 365.004 179.324C368.507 180.216 371.628 181.935 374.176 184.292H373.921C373.921 184.356 372.902 184.738 372.902 184.738L362.966 188.306C361.693 188.752 360.355 188.051 360.419 186.522C360.483 185.248 361.502 183.655 362.202 182.636ZM349.783 181.235V181.872L350.101 192.446C350.101 193.784 349.018 194.867 347.617 194.294C346.407 193.848 345.261 192.383 344.496 191.364C343.668 190.344 342.968 189.198 342.395 187.924C344.305 185.121 346.853 182.764 349.846 181.171L349.783 181.235ZM356.534 220.667L357.107 219.839L363.221 211.175C364.049 210.092 365.514 209.901 366.342 211.175C367.043 212.258 367.043 214.169 367.106 215.38C367.106 216.845 367.043 218.374 366.66 219.839C364.686 220.476 362.648 220.858 360.419 220.922C358.19 220.985 357.744 220.922 356.47 220.667H356.534Z" fill="#B9B9B9"/>
<path d="M354.432 197.734C355.663 197.734 356.661 196.736 356.661 195.504C356.661 194.273 355.663 193.275 354.432 193.275C353.201 193.275 352.203 194.273 352.203 195.504C352.203 196.736 353.201 197.734 354.432 197.734Z" fill="#2C2C2C"/>
<path d="M355.578 206.525C356.81 206.525 357.808 205.527 357.808 204.295C357.808 203.064 356.81 202.066 355.578 202.066C354.347 202.066 353.349 203.064 353.349 204.295C353.349 205.527 354.347 206.525 355.578 206.525Z" fill="#2C2C2C"/>
<path d="M359.846 202.83C361.534 202.83 362.903 201.461 362.903 199.772C362.903 198.084 361.534 196.715 359.846 196.715C358.157 196.715 356.789 198.084 356.789 199.772C356.789 201.461 358.157 202.83 359.846 202.83Z" fill="#A8A8A8"/>
<path d="M365.259 205.378C366.49 205.378 367.488 204.38 367.488 203.149C367.488 201.917 366.49 200.919 365.259 200.919C364.028 200.919 363.03 201.917 363.03 203.149C363.03 204.38 364.028 205.378 365.259 205.378Z" fill="#2C2C2C"/>
<path d="M363.221 196.651C364.452 196.651 365.45 195.653 365.45 194.421C365.45 193.19 364.452 192.192 363.221 192.192C361.99 192.192 360.992 193.19 360.992 194.421C360.992 195.653 361.99 196.651 363.221 196.651Z" fill="#2C2C2C"/>
<path d="M354.241 178.304H357.043C357.043 178.241 354.05 191.364 354.05 191.364C354.05 191.618 353.668 191.555 353.668 191.364L354.241 178.304Z" fill="#A8A8A8"/>
<path d="M379.207 189.07L380.035 191.746L366.533 192.319C366.278 192.319 366.278 192.001 366.533 191.937L379.271 189.07H379.207Z" fill="#A8A8A8"/>
<path d="M376.532 214.36L374.239 216.017L369.399 203.403C369.335 203.212 369.59 203.021 369.717 203.212L376.532 214.36Z" fill="#A8A8A8"/>
<path d="M352.075 218.501L349.846 216.845L360.291 208.309C360.482 208.181 360.673 208.372 360.546 208.563L352.075 218.501Z" fill="#A8A8A8"/>
<path d="M338.51 198.116L339.146 195.377L351.056 201.747C351.247 201.875 351.12 202.193 350.929 202.066L338.51 198.116Z" fill="#A8A8A8"/>
<path d="M57.0658 229.203C76.4471 229.203 92.1587 213.488 92.1587 194.103C92.1587 174.717 76.4471 159.002 57.0658 159.002C37.6845 159.002 21.9729 174.717 21.9729 194.103C21.9729 213.488 37.6845 229.203 57.0658 229.203Z" fill="#2C2C2C"/>
<path d="M56.6838 169.131C42.7994 169.513 31.8448 181.044 32.227 194.931C32.6091 208.818 44.1369 219.775 58.0212 219.393C71.9055 219.011 82.8601 207.48 82.478 193.593C82.0959 179.706 70.5681 168.749 56.6838 169.131ZM75.2174 204.486L74.6442 203.594L68.7848 194.995C68.0842 193.912 68.4026 192.446 69.8675 192.128C71.0776 191.873 72.8609 192.51 74.0073 192.892C75.4085 193.338 76.7459 194.039 77.956 194.803L78.3382 195.058C78.2745 198.689 77.2555 202.066 75.5358 204.996L75.2811 204.486H75.2174ZM48.022 203.658C47.1303 204.55 45.347 204.996 44.1369 205.314C42.7994 205.697 41.462 205.888 40.1245 205.888C38.3412 203.149 37.1311 199.9 36.8126 196.396L37.6406 196.715L47.2577 200.6C48.4678 201.11 49.041 202.512 47.9583 203.531L48.022 203.658ZM59.8045 177.667C60.5688 176.457 61.5242 175.374 62.6069 174.355C66.0461 175.183 69.1032 176.903 71.6508 179.26H71.396C71.396 179.324 70.377 179.706 70.377 179.706L60.5688 183.21C59.295 183.592 57.9575 182.955 58.0849 181.49C58.1486 180.215 59.1676 178.687 59.8682 177.667H59.8045ZM47.5762 176.266V176.903L47.8946 187.287C47.8946 188.624 46.8756 189.644 45.4744 189.134C44.328 188.688 43.1816 187.223 42.3536 186.267C41.5257 185.248 40.8251 184.101 40.2519 182.891C42.0989 180.152 44.6464 177.858 47.5762 176.202V176.266ZM54.1999 215.061L54.7731 214.233L60.7599 205.76C61.5242 204.677 63.0527 204.486 63.817 205.76C64.4539 206.843 64.5176 208.691 64.5813 209.901C64.5813 211.366 64.5176 212.831 64.1991 214.233C62.2884 214.87 60.2504 215.252 58.0849 215.316C56.7474 215.316 55.4737 215.316 54.1999 215.061Z" fill="#B9B9B9"/>
<path d="M52.1618 192.51C53.3577 192.51 54.3272 191.54 54.3272 190.344C54.3272 189.148 53.3577 188.178 52.1618 188.178C50.9658 188.178 49.9963 189.148 49.9963 190.344C49.9963 191.54 50.9658 192.51 52.1618 192.51Z" fill="#2C2C2C"/>
<path d="M53.308 201.174C54.504 201.174 55.4735 200.204 55.4735 199.008C55.4735 197.812 54.504 196.842 53.308 196.842C52.1121 196.842 51.1426 197.812 51.1426 199.008C51.1426 200.204 52.1121 201.174 53.308 201.174Z" fill="#2C2C2C"/>
<path d="M57.5117 197.606C59.2001 197.606 60.5688 196.237 60.5688 194.549C60.5688 192.86 59.2001 191.491 57.5117 191.491C55.8233 191.491 54.4546 192.86 54.4546 194.549C54.4546 196.237 55.8233 197.606 57.5117 197.606Z" fill="#A8A8A8"/>
<path d="M62.7978 200.027C63.9937 200.027 64.9632 199.057 64.9632 197.861C64.9632 196.665 63.9937 195.695 62.7978 195.695C61.6018 195.695 60.6323 196.665 60.6323 197.861C60.6323 199.057 61.6018 200.027 62.7978 200.027Z" fill="#2C2C2C"/>
<path d="M60.8234 191.427C62.0193 191.427 62.9888 190.458 62.9888 189.261C62.9888 188.065 62.0193 187.095 60.8234 187.095C59.6275 187.095 58.658 188.065 58.658 189.261C58.658 190.458 59.6275 191.427 60.8234 191.427Z" fill="#2C2C2C"/>
<path d="M51.9707 173.463H54.7093C54.7093 173.399 51.7796 186.331 51.7796 186.331C51.7796 186.522 51.3975 186.522 51.3975 186.331L51.9707 173.527V173.463Z" fill="#A8A8A8"/>
<path d="M76.5549 183.974L77.3828 186.586L64.1354 187.159C63.8806 187.159 63.8806 186.841 64.1354 186.777L76.6185 183.91L76.5549 183.974Z" fill="#A8A8A8"/>
<path d="M73.8799 208.882L71.6508 210.474L66.8741 198.052C66.8104 197.861 67.0651 197.67 67.1925 197.861L73.8799 208.818V208.882Z" fill="#A8A8A8"/>
<path d="M49.869 212.959L47.6399 211.303L57.8939 202.894C58.085 202.766 58.276 202.957 58.1487 203.149L49.8053 212.895L49.869 212.959Z" fill="#A8A8A8"/>
<path d="M36.5579 192.956L37.1948 190.281L48.9136 196.523C49.1047 196.651 48.9773 196.906 48.7862 196.842L36.5579 192.956Z" fill="#A8A8A8"/>
<path d="M156.549 152.887H154.192V154.989H156.549V152.887Z" fill="black"/>
<path d="M156.549 156.263H154.192V164.035H156.549V156.263Z" fill="black"/>
<path d="M122.029 146.835H125.277L125.914 149.128H128.398L125.086 138.745H122.411L118.972 149.128H121.328L122.029 146.835ZM123.685 140.783L124.768 145.115H122.411L123.621 140.783H123.685Z" fill="black"/>
<path d="M167.249 138.363H165.147L164.383 140.529H165.72L167.249 138.363Z" fill="black"/>
<path d="M131.137 149.256C132.347 149.256 132.984 148.683 133.302 147.854C133.302 148.364 133.302 148.81 133.366 149.128H135.531C135.531 148.746 135.531 148.237 135.531 147.536V141.42H133.175V145.752C133.175 146.771 132.92 147.409 132.156 147.409C131.391 147.409 131.264 147.154 131.264 146.198V141.42H128.907V146.517C128.907 148.046 129.481 149.32 131.2 149.32L131.137 149.256Z" fill="black"/>
<path d="M160.243 152.887H157.886V164.035H160.243V152.887Z" fill="black"/>
<path d="M165.21 164.162C166.038 164.162 166.93 163.971 167.694 163.716V161.933C167.057 162.251 166.293 162.57 165.465 162.57C164.128 162.57 163.555 161.742 163.555 160.786H168.14V160.213C168.14 156.136 165.465 156.136 164.765 156.136C162.536 156.136 161.325 158.047 161.325 160.085C161.325 162.124 162.536 164.099 165.274 164.099L165.21 164.162ZM164.701 157.601C165.656 157.601 165.911 158.493 165.911 159.512H163.491C163.491 159.066 163.491 157.601 164.701 157.601Z" fill="black"/>
<path d="M179.859 141.42H177.502V149.192H179.859V141.42Z" fill="black"/>
<path d="M121.647 164.162C122.984 164.162 123.494 163.271 123.749 162.825C123.749 163.334 123.749 163.78 123.812 164.035H126.041C126.041 163.653 126.041 163.271 126.041 162.315V152.887H123.685V157.41C123.366 156.709 122.73 156.136 121.647 156.136C119.672 156.136 118.908 157.856 118.908 159.958C118.908 162.06 119.864 164.162 121.647 164.162ZM122.475 157.792C123.43 157.792 123.621 158.939 123.621 160.213C123.621 161.487 123.43 162.506 122.475 162.506C121.519 162.506 121.328 161.041 121.328 160.213C121.328 159.002 121.392 157.792 122.475 157.792Z" fill="black"/>
<path d="M130.5 156.2C128.271 156.2 127.061 158.111 127.061 160.149C127.061 162.188 128.271 164.162 131.009 164.162C133.748 164.162 132.729 163.971 133.493 163.716V161.933C132.856 162.251 132.092 162.57 131.264 162.57C129.927 162.57 129.353 161.742 129.353 160.786H133.939V160.213C133.939 156.136 131.264 156.136 130.563 156.136L130.5 156.2ZM129.29 159.512C129.29 159.066 129.29 157.601 130.5 157.601C131.71 157.601 131.71 158.493 131.71 159.512H129.29Z" fill="black"/>
<path d="M143.301 162.251C141.773 162.251 140.563 160.914 140.563 158.875C140.563 156.837 141.582 155.435 143.238 155.435C144.894 155.435 144.957 155.817 145.339 156.008L145.467 153.97C145.085 153.779 144.257 153.46 142.728 153.46C140.626 153.46 138.079 154.989 138.079 158.811C138.079 162.633 140.053 164.226 142.919 164.226C145.785 164.226 145.085 163.971 145.531 163.844V161.678C145.212 161.805 144.511 162.251 143.301 162.251Z" fill="black"/>
<path d="M150.626 156.199C149.798 156.199 148.906 156.582 148.651 157.474V152.951H146.295V164.099H148.651V159.767C148.651 158.748 148.906 158.111 149.67 158.111C150.434 158.111 150.562 158.365 150.562 159.321V164.099H152.918V159.002C152.918 157.474 152.345 156.199 150.626 156.199Z" fill="black"/>
<path d="M192.915 149.32C194.253 149.32 195.081 149.065 195.527 148.937V146.771C195.208 146.899 194.508 147.345 193.297 147.345C192.087 147.345 190.559 146.007 190.559 143.969C190.559 141.866 191.578 140.529 193.234 140.529C194.38 140.529 194.953 140.911 195.336 141.102L195.463 139.063C195.081 138.872 194.253 138.554 192.724 138.554C191.196 138.554 188.075 140.083 188.075 143.905C188.075 147.217 190.049 149.32 192.915 149.32Z" fill="black"/>
<path d="M150.116 149.192H152.472V144.86C152.472 143.905 152.727 143.204 153.492 143.204C154.256 143.204 154.319 143.459 154.319 144.414V149.192H156.676V144.287C156.676 143.714 156.931 143.204 157.631 143.204C158.332 143.204 158.523 143.523 158.523 144.414V149.192H160.879V144.096C160.879 142.567 160.306 141.293 158.587 141.293C156.867 141.293 156.803 141.866 156.485 142.567C156.166 141.803 155.593 141.293 154.511 141.293C153.428 141.293 152.664 141.866 152.345 142.694C152.345 142.185 152.345 141.739 152.281 141.42H150.116C150.116 141.803 150.116 142.312 150.116 143.013V149.128V149.192Z" fill="black"/>
<path d="M183.553 137.98H181.197V149.128H183.553V137.98Z" fill="black"/>
<path d="M179.859 137.98H177.502V140.083H179.859V137.98Z" fill="black"/>
<path d="M174.573 149.192L176.993 141.42H174.7L173.299 146.963L171.834 141.42H169.414L171.834 149.192H174.573Z" fill="black"/>
<path d="M210.048 147.918C210.303 148.364 210.812 149.256 212.213 149.256C213.933 149.256 214.952 147.536 214.952 145.051C214.952 142.949 214.188 141.229 212.213 141.229C210.239 141.229 210.494 141.803 210.239 142.503V137.98H207.882V147.408C207.882 148.364 207.882 148.81 207.882 149.128H210.111C210.111 148.81 210.111 148.428 210.111 147.918H210.048ZM211.322 142.886C212.341 142.886 212.468 144.032 212.468 145.306C212.468 146.58 212.468 147.6 211.322 147.6C210.175 147.6 210.175 146.198 210.175 145.306C210.175 144.414 210.43 142.886 211.322 142.886Z" fill="black"/>
<path d="M165.529 149.256C167.885 149.256 169.159 147.6 169.159 145.243C169.159 142.886 167.885 141.293 165.529 141.293C163.172 141.293 161.899 142.949 161.899 145.243C161.899 147.536 163.172 149.256 165.529 149.256ZM165.529 142.886C166.357 142.886 166.739 143.714 166.739 145.243C166.739 146.771 166.357 147.663 165.529 147.663C164.701 147.663 164.319 146.771 164.319 145.243C164.319 143.714 164.701 142.886 165.529 142.886Z" fill="black"/>
<path d="M137.378 146.963C137.378 148.683 138.461 149.256 139.671 149.256C140.881 149.256 141.072 149.128 141.327 149.065V147.408C141.072 147.536 140.881 147.6 140.563 147.6C140.244 147.6 139.798 147.408 139.798 146.644V143.077H141.327V141.42H139.798V139.127L137.505 139.828V141.42H136.168V143.077H137.442V147.026L137.378 146.963Z" fill="black"/>
<path d="M145.467 149.256C147.823 149.256 149.097 147.6 149.097 145.243C149.097 142.949 147.823 141.293 145.467 141.293C143.11 141.293 141.836 142.949 141.836 145.243C141.836 147.536 143.11 149.256 145.467 149.256ZM145.467 142.886C146.295 142.886 146.677 143.714 146.677 145.243C146.677 146.771 146.295 147.663 145.467 147.663C144.639 147.663 144.257 146.771 144.257 145.243C144.257 143.714 144.639 142.886 145.467 142.886Z" fill="black"/>
<path d="M202.278 149.256C203.488 149.256 204.125 148.683 204.443 147.854C204.443 148.364 204.443 148.81 204.507 149.128H206.672C206.672 148.746 206.672 148.237 206.672 147.536V141.42H204.316V145.752C204.316 146.771 204.061 147.409 203.297 147.409C202.532 147.409 202.405 147.154 202.405 146.198V141.42H200.049V146.517C200.049 148.046 200.622 149.32 202.341 149.32L202.278 149.256Z" fill="black"/>
<path d="M198.775 137.98H196.418V149.128H198.775V137.98Z" fill="black"/>
<path d="M171.452 160.786C170.433 160.786 169.605 161.614 169.605 162.633C169.605 163.653 170.433 164.481 171.452 164.481C172.471 164.481 173.299 163.653 173.299 162.633C173.299 161.614 172.471 160.786 171.452 160.786ZM171.452 164.162C170.688 164.162 170.051 163.525 170.051 162.633C170.051 161.742 170.688 161.105 171.452 161.105C172.216 161.105 172.853 161.742 172.853 162.633C172.853 163.525 172.216 164.162 171.452 164.162Z" fill="black"/>
<path d="M172.28 162.188C172.28 161.742 172.025 161.551 171.516 161.551H170.751V163.653H171.134V162.761H171.388L171.962 163.653H172.344L171.771 162.697C172.089 162.697 172.344 162.506 172.344 162.124L172.28 162.188ZM171.134 162.442V161.869H171.516C171.707 161.869 171.962 161.869 171.962 162.188C171.962 162.506 171.77 162.506 171.516 162.506H171.197L171.134 162.442Z" fill="black"/>
<path d="M412.581 129.444C412.581 129.444 416.848 109.633 407.868 102.816C407.868 102.816 380.545 101.797 376.214 104.536C376.214 104.536 374.112 107.212 378.379 110.652C378.379 110.652 403.409 130.782 412.581 129.381V129.444Z" fill="#C64C30"/>
<path d="M186.101 124.157C186.101 124.157 186.547 128.361 196.164 127.215L211.64 126.514C211.64 126.514 216.417 126.705 218.901 122.182L186.037 124.157H186.101Z" fill="#FFC200"/>
<path d="M310.295 121.609C310.295 121.609 310.741 125.813 320.358 124.667L335.835 123.966C335.835 123.966 340.611 124.157 343.095 119.634L310.231 121.609H310.295Z" fill="#FFC200"/>
<path d="M5.66825 138.872C4.84029 140.401 5.22243 142.376 7.00573 143.013C8.78904 143.65 8.85273 143.268 9.74438 143.14C13.8205 142.758 18.1514 141.93 22.2275 141.803C25.3483 140.911 28.5328 139.255 30.8256 136.961L42.5445 125.558C42.5445 125.558 45.4105 121.609 39.1689 120.844C39.1689 120.844 18.0877 123.201 10.3813 130.464L5.66825 138.872Z" fill="white"/>
<path d="M237.307 53.1282H238.071C238.199 53.1282 238.326 53.1282 238.39 53.1282C238.645 53.1282 238.899 53.1282 239.154 53.1282C239.664 53.1282 240.173 53.1282 240.683 53.1282V33.444H236.288V53.0008C236.415 53.0008 236.543 53.0008 236.67 53.0008C236.861 53.0008 237.116 53.0008 237.307 53.0008V53.1282Z" fill="#2C2C2C"/>
<path d="M244.249 45.8024H232.785V48.4142H244.249V45.8024Z" fill="#2C2C2C"/>
<path d="M260.108 8.85471H216.927V35.2914H260.108V8.85471Z" fill="#FFD500"/>
<path d="M234.632 22.8693H232.658L231.766 20.4486L228.072 20.576L227.371 23.1242H225.397L228.645 11.9124H230.62L234.568 22.933L234.632 22.8693ZM231.129 18.5375L229.728 14.3969L228.581 18.6013H231.065L231.129 18.5375Z" fill="#C64C30"/>
<path d="M219.538 31.8514V25.4811H221.194C221.83 25.4811 222.213 25.4811 222.467 25.5448C222.786 25.6722 223.041 25.8634 223.232 26.1819C223.423 26.5004 223.55 26.9463 223.55 27.4559C223.55 27.9018 223.486 28.2841 223.295 28.6026C223.104 28.9211 222.913 29.1122 222.658 29.2396C222.404 29.367 221.958 29.4307 221.321 29.4307H220.62V31.8514H219.538ZM220.557 26.5641V28.4115H221.13C221.512 28.4115 221.767 28.4115 221.958 28.3478C222.085 28.3478 222.213 28.2204 222.276 28.0293C222.34 27.9019 222.404 27.7107 222.404 27.5196C222.404 27.3285 222.404 27.1374 222.276 27.01C222.213 26.8826 222.085 26.7552 221.958 26.6915C221.83 26.6915 221.512 26.6278 221.066 26.6278H220.557V26.5641Z" fill="black"/>
<path d="M224.442 31.8514V25.4811H226.671C227.244 25.4811 227.626 25.4811 227.881 25.6722C228.136 25.7997 228.327 25.9908 228.454 26.2456C228.581 26.5004 228.709 26.8826 228.709 27.2648C228.709 27.7744 228.581 28.1567 228.327 28.4752C228.072 28.7937 227.754 28.9848 227.308 29.0485C227.562 29.2396 227.754 29.367 227.881 29.5581C228.008 29.7492 228.263 30.0677 228.518 30.5774L229.155 31.8514H227.881L227.117 30.45C226.862 29.9403 226.671 29.6218 226.543 29.4944C226.416 29.367 226.352 29.3033 226.225 29.2396C226.098 29.2396 225.907 29.1759 225.715 29.1759H225.524V31.8514H224.442ZM225.461 28.1567H226.225C226.734 28.1567 226.989 28.1567 227.117 28.093C227.244 28.093 227.371 27.9656 227.435 27.8381C227.499 27.7107 227.562 27.5196 227.562 27.3285C227.562 27.1374 227.562 26.9463 227.435 26.8189C227.371 26.6915 227.244 26.6278 227.117 26.5641C226.989 26.5641 226.734 26.5641 226.289 26.5641H225.461V28.2204V28.1567Z" fill="black"/>
<path d="M234.441 31.7877H233.295L232.849 30.3226H230.747L230.301 31.7877H229.155L231.193 25.4174H232.339L234.441 31.7877ZM232.467 29.2396L231.766 26.8826L231.065 29.2396H232.53H232.467Z" fill="black"/>
<path d="M238.39 29.4307L239.409 29.8129C239.281 30.5137 238.963 31.0233 238.644 31.4055C238.262 31.724 237.816 31.9151 237.243 31.9151C236.543 31.9151 236.033 31.6603 235.587 31.1507C235.078 30.5137 234.823 29.7492 234.823 28.6663C234.823 27.5833 235.078 26.6915 235.524 26.1182C235.969 25.6086 236.543 25.29 237.243 25.29C237.816 25.29 238.326 25.4811 238.708 25.8634C238.963 26.1182 239.218 26.5641 239.345 27.1374L238.326 27.4559C238.262 27.1374 238.135 26.8189 237.944 26.6915C237.753 26.5004 237.498 26.4367 237.243 26.4367C236.861 26.4367 236.543 26.6278 236.288 26.9463C236.033 27.2648 235.906 27.8382 235.906 28.6026C235.906 29.4307 236.033 30.0041 236.288 30.3226C236.543 30.6411 236.861 30.8322 237.243 30.8322C237.498 30.8322 237.753 30.7048 237.944 30.5137C238.135 30.3226 238.262 29.9403 238.39 29.4944V29.4307Z" fill="black"/>
<path d="M241.51 31.7877V26.5004H239.918V25.4174H244.058V26.5004H242.529V31.7877H241.51Z" fill="black"/>
<path d="M244.759 31.7877V25.4174H245.778V31.7877H244.759Z" fill="black"/>
<path d="M250.172 29.4307L251.191 29.8129C251.064 30.5137 250.746 31.0233 250.427 31.4055C250.045 31.724 249.599 31.9151 249.026 31.9151C248.325 31.9151 247.816 31.6603 247.37 31.1507C246.86 30.5137 246.606 29.7492 246.606 28.6663C246.606 27.5833 246.86 26.6915 247.306 26.1182C247.752 25.6086 248.325 25.29 249.026 25.29C249.599 25.29 250.109 25.4811 250.491 25.8634C250.746 26.1182 251 26.5641 251.128 27.1374L250.109 27.4559C250.045 27.1374 249.918 26.8189 249.726 26.6915C249.535 26.5004 249.281 26.4367 249.026 26.4367C248.644 26.4367 248.325 26.6278 248.071 26.9463C247.816 27.2648 247.688 27.8382 247.688 28.6026C247.688 29.4307 247.816 30.0041 248.071 30.3226C248.325 30.6411 248.644 30.8322 249.026 30.8322C249.281 30.8322 249.535 30.7048 249.726 30.5137C249.918 30.3226 250.045 29.9403 250.172 29.4944V29.4307Z" fill="black"/>
<path d="M256.86 31.724H255.713L255.267 30.2589H253.166L252.72 31.724H251.573L253.612 25.3537H254.758L256.86 31.724ZM254.885 29.1759L254.185 26.8189L253.484 29.1759H254.949H254.885Z" fill="black"/>
<path d="M241.001 22.9967V16.3716H245.013V17.5183H242.084V18.9835H244.822V20.0664H242.084V21.8501H245.077V22.9967H240.937H241.001Z" fill="black"/>
<path d="M246.096 22.9967V16.3716H247.179L249.408 20.7671V16.3716H250.427V22.9967H249.344L247.179 18.6649V22.9967H246.16H246.096Z" fill="black"/>
<path d="M129.608 92.624L123.94 91.35C123.94 91.35 120.055 93.0063 119.29 96.4462C118.526 99.8225 123.239 100.969 125.341 96.7647L128.525 97.784L129.608 92.624Z" fill="#FB9C98"/>
<path d="M227.244 9.61913C224.888 6.68879 224.633 5.79695 224.888 5.47844C225.27 5.09622 226.989 5.47844 227.626 6.75249C228.136 7.70804 227.945 8.85469 227.244 9.61913Z" fill="#FB9C98"/>
<path d="M212.723 95.2358C212.404 85.4256 211.449 76.5709 210.239 68.6717L196.291 63.6392C190.368 65.1044 184.445 66.5695 178.522 68.0347C177.12 72.7487 175.847 77.7812 174.764 83.1323C172.726 93.261 171.707 102.753 171.325 111.353C171.452 111.353 171.579 111.353 171.707 111.353C172.344 111.353 173.044 111.225 173.681 111.225C174.318 111.225 175.019 111.162 175.656 111.098C175.847 111.098 176.038 111.098 176.229 111.098C176.292 111.098 176.42 111.098 176.484 111.098H176.611C176.802 111.098 176.993 111.098 177.057 111.098C177.312 111.098 177.566 111.098 177.821 111.098C177.821 111.098 177.948 111.098 178.076 111.098C178.394 111.098 178.713 111.098 179.095 111.034C179.222 111.034 179.859 111.034 180.496 110.97C180.496 110.97 181.197 110.97 181.324 110.97C181.515 110.97 181.77 110.97 181.961 110.97C182.088 110.97 182.47 110.97 182.853 110.97C182.98 110.97 183.171 110.97 183.298 110.97C183.362 110.97 183.426 110.97 183.489 110.97C184.063 110.97 184.636 110.907 185.209 110.843C185.846 110.843 186.546 110.779 187.183 110.716C187.311 110.716 187.438 110.716 187.566 110.716C187.629 110.716 187.693 110.716 187.82 110.716C188.011 110.716 188.202 110.716 188.393 110.716C188.585 110.716 188.839 110.716 188.903 110.716C189.413 110.716 189.922 110.652 190.432 110.588C190.432 110.588 190.432 110.588 190.495 110.588C190.623 110.588 190.814 110.588 190.941 110.588C191.005 110.588 191.323 110.588 191.514 110.588C191.833 110.588 192.087 110.588 192.406 110.525C192.852 110.525 193.361 110.525 193.807 110.461C193.934 110.461 194.508 110.461 194.571 110.461C194.89 110.461 195.272 110.461 195.59 110.461C195.59 110.397 196.291 110.397 196.418 110.397C196.482 110.397 196.546 110.397 196.609 110.397C196.609 110.397 196.673 110.397 196.801 110.397C196.801 110.397 197.501 110.397 197.628 110.397C197.628 110.397 197.756 110.397 197.82 110.397C198.329 110.397 198.902 110.333 199.412 110.27C199.667 110.27 199.985 110.27 200.24 110.27C200.367 110.27 200.94 110.27 201.004 110.27C201.641 110.27 202.342 110.142 202.978 110.142C203.615 110.142 204.316 110.079 204.953 110.015C204.889 110.015 205.335 110.015 205.59 110.015C205.59 109.951 206.29 109.951 206.418 109.951C207.055 109.951 207.755 109.824 208.392 109.824C208.71 109.824 208.965 109.824 209.284 109.824C209.284 109.76 209.984 109.824 210.112 109.76C210.749 109.76 211.449 109.633 212.086 109.633C212.404 109.633 212.723 109.633 213.041 109.633C213.169 105.428 213.169 101.033 213.041 96.3825L212.723 95.2358Z" fill="#3358F2"/>
<path d="M212.723 95.2358C212.404 85.4256 211.449 76.5709 210.239 68.6717L196.291 63.6392C190.368 65.1044 185.782 66.251 179.859 67.7162C178.458 72.4302 176.675 77.7812 175.592 83.196C173.554 93.1973 171.962 102.753 171.388 111.353C171.452 111.353 171.579 111.353 171.643 111.353C172.28 111.353 172.981 111.225 173.618 111.225C174.254 111.225 174.955 111.162 175.592 111.098C175.783 111.098 175.974 111.098 176.165 111.098C176.229 111.098 176.356 111.098 176.42 111.098H176.547C176.738 111.098 176.929 111.098 176.993 111.098C177.248 111.098 177.503 111.098 177.757 111.098C177.757 111.098 177.885 111.098 178.012 111.098C178.331 111.098 178.649 111.098 179.031 111.034C179.159 111.034 179.795 111.034 180.432 110.97C180.432 110.97 181.133 110.97 181.26 110.97C181.451 110.97 181.706 110.97 181.897 110.97C182.025 110.97 182.407 110.97 182.789 110.97C182.916 110.97 183.107 110.97 183.235 110.97C183.298 110.97 183.362 110.97 183.426 110.97C183.999 110.97 184.572 110.907 185.145 110.843C185.782 110.843 186.483 110.779 187.12 110.716C187.247 110.716 187.374 110.716 187.502 110.716C187.566 110.716 187.629 110.716 187.757 110.716C187.948 110.716 188.139 110.716 188.33 110.716C188.521 110.716 188.776 110.716 188.839 110.716C189.349 110.716 189.858 110.652 190.368 110.588C190.368 110.588 190.368 110.588 190.432 110.588C190.559 110.588 190.75 110.588 190.877 110.588C190.941 110.588 191.26 110.588 191.451 110.588C191.769 110.588 192.024 110.588 192.342 110.525C192.788 110.525 193.298 110.525 193.743 110.461C193.871 110.461 194.444 110.461 194.508 110.461C194.826 110.461 195.208 110.461 195.527 110.461C195.527 110.397 196.227 110.397 196.355 110.397C196.418 110.397 196.482 110.397 196.546 110.397C196.546 110.397 196.609 110.397 196.737 110.397C196.737 110.397 197.437 110.397 197.565 110.397C197.565 110.397 197.692 110.397 197.756 110.397C198.265 110.397 198.839 110.333 199.348 110.27C199.603 110.27 199.921 110.27 200.176 110.27C200.303 110.27 200.877 110.27 200.94 110.27C201.577 110.27 202.278 110.142 202.915 110.142C203.552 110.142 204.252 110.079 204.889 110.015C204.825 110.015 205.271 110.015 205.526 110.015C205.526 109.951 206.227 109.951 206.354 109.951C206.991 109.951 207.691 109.824 208.328 109.824C208.647 109.824 208.902 109.824 209.22 109.824C209.22 109.76 209.921 109.824 210.048 109.76C210.685 109.76 211.385 109.633 212.022 109.633C212.341 109.633 212.659 109.633 212.978 109.633C213.105 105.428 213.105 101.033 212.978 96.3825L212.723 95.2358Z" fill="#3358F2"/>
<path d="M200.686 54.1475L200.431 65.4229L195.272 66.6969L191.514 64.7222L193.744 53.1282L200.686 54.1475Z" fill="#FB9C98"/>
<path d="M193.107 53.383L200.431 54.5934V55.2304C199.73 58.4156 196.673 61.4096 193.616 60.9C193.17 60.8363 192.788 60.6452 192.406 60.454L193.107 53.383Z" fill="#F26D6D"/>
<path d="M194.826 45.2291C192.342 45.9298 191.323 48.2231 191.005 48.9875C189.667 52.0453 189.858 57.0778 192.916 58.543C195.845 59.9444 199.921 57.5237 201.386 54.2749C202.405 51.9179 202.405 48.4142 200.049 46.4394C198.711 45.2928 196.737 44.7194 194.826 45.2291Z" fill="#F6A19E"/>
<path d="M200.176 53.1919C200.176 53.5741 199.921 55.0393 198.775 55.6763C197.628 56.2497 196.164 55.5489 194.954 54.9756C192.852 53.9564 192.406 52.9371 191.005 52.9371C190.177 52.9371 189.54 53.3193 189.094 53.6378C188.521 54.4023 187.247 56.3771 187.884 57.9696C188.839 60.3903 193.616 60.7726 196.737 59.3074C199.539 57.9696 201.768 54.8482 201.131 53.7652C200.94 53.4467 200.558 53.383 200.176 53.3193V53.1919Z" fill="#1C1C1C"/>
<path d="M199.858 53.1282C199.985 52.8734 201.45 49.8794 200.24 47.7135C199.985 47.2676 199.221 45.8661 197.947 45.7387C197.565 45.7387 197.31 45.7387 194.38 46.949C193.807 47.1402 193.361 47.2676 192.788 47.2676C190.941 47.1402 189.795 45.038 189.731 44.9743C188.839 43.318 189.03 40.961 190.241 39.7506C192.215 37.7121 196.291 39.241 198.393 40.6425C198.393 40.6425 202.915 43.7639 202.405 50.1342C202.405 50.4527 202.342 51.026 201.959 51.6631C201.323 52.6823 200.24 53.0645 199.794 53.1919L199.858 53.1282Z" fill="#1C1C1C"/>
<path d="M202.979 53.9564C203.361 53.1282 202.979 52.1727 202.151 51.8542C201.323 51.4719 200.367 51.8542 200.049 52.6823C199.667 53.5104 200.049 54.466 200.877 54.7845C201.705 55.1667 202.66 54.7845 202.979 53.9564Z" fill="#F6A19E"/>
<path d="M189.667 65.5503C190.24 64.977 190.877 64.3399 191.642 64.4036C192.151 64.4036 192.279 64.7222 193.107 65.1681C193.807 65.5503 194.954 65.6777 195.399 65.7414C195.399 66.0599 195.017 66.9518 194.571 67.8436C194.126 68.7992 193.425 69.3088 193.107 69.4362C192.406 69.1814 191.514 68.7992 190.559 68.1621C189.795 67.6525 189.221 67.0792 188.776 66.5695C188.967 66.3147 189.221 65.8688 189.667 65.4866V65.5503Z" fill="#1E4BD8"/>
<path d="M201.832 65.1044C201.45 64.6585 201.068 64.4037 200.813 64.2762C200.495 64.2762 200.112 64.2762 199.73 64.4036C199.157 64.4674 198.711 64.5948 198.457 64.7222C197.055 65.1044 195.336 65.6777 195.017 65.8051C195.145 66.3784 195.208 67.1429 195.527 67.9073C195.845 68.5443 196.355 68.8629 196.61 69.3088C197.31 68.7354 198.265 68.0984 199.539 67.5251C200.749 66.9518 201.832 66.697 202.66 66.5058C202.533 66.1873 202.342 65.6777 201.896 65.1681L201.832 65.1044Z" fill="#1E4BD8"/>
<path d="M204.953 70.9013L215.271 44.4009L225.397 11.0843L233.295 14.3331L226.289 50.1979L212.086 86.4448L204.953 70.9013Z" fill="#3358F2"/>
<path d="M232.276 13.8872L235.842 4.07699L234.696 3.43996L232.976 5.54215L233.804 0.828138L232.403 0.382217L231.129 4.65031L231.511 0.382217L229.983 0L226.544 11.5939L232.276 13.8872Z" fill="#FB9C98"/>
<path d="M205.908 68.6717C205.908 68.6717 204.889 70.9013 203.297 71.9206" stroke="#1E4BD8" stroke-miterlimit="10" stroke-linecap="round"/>
<path d="M178.522 68.0347C178.522 68.0347 170.115 78.4183 154.383 95.4269L129.29 91.987L127.889 98.6758L159.606 107.276L178.649 90.2033" fill="#3358F2"/>
<path d="M173.172 91.2863L174.764 82.3679" stroke="#1E4BD8" stroke-miterlimit="10" stroke-linecap="round"/>
<path d="M352.458 133.84C352.267 133.712 352.076 133.649 351.885 133.712C350.929 134.031 346.152 135.878 344.624 140.911C344.56 141.166 342.65 146.58 348.764 151.804C348.191 154.352 347.745 156.136 347.745 156.136L347.49 157.028C347.49 157.028 347.554 157.028 347.617 157.028L348.445 156.9L348.573 156.391C348.573 156.199 349.082 154.416 349.655 151.868C353.732 151.294 357.171 147.918 357.553 144.032C357.871 140.465 355.961 136.643 352.458 133.712V133.84ZM345.452 141.229C346.662 137.216 350.292 135.305 351.63 134.732C351.502 139 350.038 146.007 348.955 150.848C343.732 146.134 345.325 141.42 345.388 141.229H345.452ZM356.725 144.032C356.407 147.408 353.477 150.403 349.91 151.04C350.993 146.262 352.33 139.446 352.521 135.05C355.451 137.662 356.98 140.975 356.725 144.032Z" fill="#23A960"/>
<path d="M347.235 156.2C346.662 155.69 346.025 155.117 345.261 154.48C344.305 153.715 343.286 152.887 342.076 151.931C341.312 151.358 340.42 150.721 339.592 150.084C339.465 147.026 338.446 143.777 336.599 140.911C334.752 137.98 332.395 135.942 329.529 134.923C326.281 133.776 322.396 133.521 318.065 134.095C317.046 134.222 315.964 134.413 314.881 134.668C314.499 134.732 314.371 134.859 314.753 136.898C315.008 138.363 315.518 139.892 316.155 141.357C317.811 144.924 320.167 147.854 322.587 149.32C324.88 150.721 327.619 151.04 330.23 151.167C331.122 151.167 332.013 151.231 332.905 151.167C334.816 151.167 336.726 150.912 338.701 150.53C339.656 151.231 340.611 151.868 341.503 152.568C342.713 153.46 343.732 154.288 344.688 155.053C345.452 155.69 346.025 156.2 346.598 156.773C346.726 156.9 346.917 157.091 347.108 157.282C347.299 157.219 347.426 157.155 347.617 157.091H348.063C347.745 156.709 347.49 156.391 347.235 156.2ZM318.193 135.05C322.396 134.477 326.154 134.732 329.275 135.815C331.886 136.77 334.115 138.618 335.898 141.42C337.427 143.905 338.446 146.771 338.701 149.447C338.255 149.128 337.873 148.874 337.427 148.555C331.313 144.351 324.88 140.337 318.32 136.579H318.256C317.556 136.133 316.855 135.751 316.091 135.369C316.855 135.241 317.556 135.114 318.256 134.986L318.193 135.05ZM330.357 150.403C327.491 150.211 325.135 149.893 323.097 148.683C320.804 147.281 318.575 144.542 316.983 141.102C316.346 139.7 315.9 138.299 315.645 136.834C315.645 136.706 315.581 136.452 315.518 136.133C316.282 136.515 316.983 136.898 317.747 137.343H317.811C324.371 141.102 330.74 145.115 336.854 149.32C337.172 149.511 337.427 149.766 337.745 149.957C335.261 150.403 332.778 150.53 330.357 150.403Z" fill="#23A960"/>
<path d="M121.138 177.03C121.074 176.903 120.946 176.839 120.819 176.776C120.692 176.712 120.564 176.712 120.437 176.712C120.31 176.712 120.246 176.712 120.182 176.712C120.119 176.712 120.055 176.712 119.991 176.776C119.927 176.839 119.864 176.903 119.864 176.967C119.864 177.03 119.864 177.094 119.864 177.221C119.864 177.349 119.864 177.476 119.991 177.54C120.119 177.604 120.182 177.667 120.373 177.731C120.501 177.731 120.692 177.859 120.819 177.859C121.01 177.859 121.138 177.986 121.265 178.05C121.392 178.113 121.52 178.241 121.647 178.432C121.774 178.559 121.774 178.75 121.774 179.005C121.774 179.26 121.774 179.451 121.647 179.578C121.583 179.77 121.456 179.897 121.329 180.024C121.201 180.152 121.01 180.216 120.819 180.279C120.628 180.343 120.437 180.343 120.246 180.343C120.055 180.343 119.736 180.343 119.482 180.216C119.227 180.152 119.036 179.961 118.845 179.77L119.418 179.26C119.482 179.387 119.609 179.515 119.8 179.578C119.991 179.642 120.119 179.706 120.246 179.706C120.373 179.706 120.437 179.706 120.501 179.706C120.564 179.706 120.692 179.706 120.755 179.578C120.819 179.578 120.883 179.451 120.946 179.387C120.946 179.324 121.01 179.26 121.01 179.133C121.01 179.005 121.01 178.878 120.883 178.75C120.755 178.687 120.692 178.623 120.501 178.559C120.373 178.559 120.182 178.432 120.055 178.368C119.864 178.368 119.736 178.241 119.609 178.177C119.482 178.113 119.354 177.986 119.227 177.795C119.099 177.667 119.099 177.476 119.099 177.221C119.099 176.967 119.099 176.839 119.227 176.648C119.354 176.457 119.418 176.33 119.545 176.266C119.673 176.139 119.864 176.075 120.055 176.011C120.246 175.947 120.437 175.947 120.628 175.947C120.819 175.947 121.074 175.947 121.265 176.075C121.456 176.202 121.647 176.266 121.838 176.393L121.329 176.967L121.138 177.03Z" fill="black"/>
<path d="M122.22 178.241C122.22 177.922 122.22 177.604 122.411 177.349C122.539 177.094 122.666 176.839 122.857 176.648C123.048 176.457 123.303 176.33 123.558 176.202C123.812 176.075 124.131 176.075 124.449 176.075C124.768 176.075 125.086 176.075 125.341 176.202C125.596 176.33 125.851 176.457 126.042 176.648C126.233 176.839 126.36 177.094 126.487 177.349C126.615 177.604 126.678 177.922 126.678 178.241C126.678 178.559 126.678 178.878 126.487 179.133C126.36 179.387 126.233 179.642 126.042 179.833C125.851 180.024 125.596 180.152 125.341 180.279C125.086 180.407 124.768 180.47 124.449 180.47C124.131 180.47 123.812 180.47 123.558 180.343C123.303 180.216 123.048 180.088 122.857 179.897C122.666 179.706 122.539 179.451 122.411 179.196C122.284 178.941 122.22 178.623 122.22 178.304V178.241ZM122.984 178.241C122.984 178.496 122.984 178.687 123.112 178.878C123.176 179.069 123.303 179.26 123.43 179.387C123.558 179.515 123.685 179.642 123.876 179.706C124.067 179.77 124.258 179.833 124.449 179.833C124.64 179.833 124.831 179.833 125.023 179.706C125.214 179.642 125.341 179.515 125.468 179.387C125.596 179.26 125.659 179.069 125.787 178.878C125.851 178.687 125.914 178.496 125.914 178.241C125.914 177.986 125.914 177.859 125.787 177.667C125.723 177.476 125.596 177.349 125.468 177.221C125.341 177.094 125.214 176.967 125.023 176.903C124.831 176.839 124.64 176.776 124.449 176.776C124.258 176.776 124.067 176.776 123.876 176.903C123.685 176.967 123.558 177.094 123.43 177.221C123.303 177.349 123.239 177.54 123.112 177.667C123.048 177.859 122.984 178.05 122.984 178.241Z" fill="black"/>
<path d="M127.379 176.139H128.526L129.608 179.069L130.755 176.139H131.901V180.279H131.201V176.839L129.927 180.279H129.417L128.143 176.839V180.279H127.443V176.139H127.379Z" fill="black"/>
<path d="M132.602 178.241C132.602 177.922 132.602 177.604 132.793 177.349C132.92 177.094 133.047 176.839 133.238 176.648C133.43 176.457 133.684 176.33 133.939 176.202C134.194 176.075 134.512 176.075 134.831 176.075C135.149 176.075 135.468 176.075 135.722 176.202C135.977 176.33 136.232 176.457 136.423 176.648C136.614 176.839 136.741 177.094 136.869 177.349C136.996 177.604 137.06 177.922 137.06 178.241C137.06 178.559 137.06 178.878 136.869 179.133C136.741 179.387 136.614 179.642 136.423 179.833C136.232 180.024 135.977 180.152 135.722 180.279C135.468 180.407 135.149 180.47 134.831 180.47C134.512 180.47 134.194 180.47 133.939 180.343C133.684 180.216 133.43 180.088 133.238 179.897C133.047 179.706 132.92 179.451 132.793 179.196C132.665 178.941 132.602 178.623 132.602 178.304V178.241ZM133.366 178.241C133.366 178.496 133.366 178.687 133.493 178.878C133.557 179.069 133.684 179.26 133.812 179.387C133.939 179.515 134.066 179.642 134.257 179.706C134.449 179.77 134.64 179.833 134.831 179.833C135.022 179.833 135.213 179.833 135.404 179.706C135.595 179.642 135.722 179.515 135.85 179.387C135.977 179.26 136.041 179.069 136.168 178.878C136.232 178.687 136.296 178.496 136.296 178.241C136.296 177.986 136.296 177.859 136.168 177.667C136.104 177.476 135.977 177.349 135.85 177.221C135.722 177.094 135.595 176.967 135.404 176.903C135.213 176.839 135.022 176.776 134.831 176.776C134.64 176.776 134.449 176.776 134.257 176.903C134.066 176.967 133.939 177.094 133.812 177.221C133.684 177.349 133.621 177.54 133.493 177.667C133.43 177.859 133.366 178.05 133.366 178.241Z" fill="black"/>
<path d="M139.735 177.03C139.671 176.903 139.544 176.839 139.417 176.776C139.289 176.712 139.162 176.712 139.034 176.712C138.907 176.712 138.843 176.712 138.78 176.712C138.716 176.712 138.652 176.712 138.589 176.776C138.525 176.839 138.461 176.903 138.461 176.967C138.461 177.03 138.461 177.094 138.461 177.221C138.461 177.349 138.461 177.476 138.589 177.54C138.716 177.604 138.78 177.667 138.971 177.731C139.098 177.731 139.289 177.859 139.417 177.859C139.608 177.859 139.735 177.986 139.862 178.05C139.99 178.113 140.117 178.241 140.244 178.432C140.372 178.559 140.372 178.75 140.372 179.005C140.372 179.26 140.372 179.451 140.244 179.578C140.181 179.77 140.053 179.897 139.926 180.024C139.799 180.152 139.608 180.216 139.417 180.279C139.225 180.343 139.034 180.343 138.843 180.343C138.652 180.343 138.334 180.343 138.079 180.216C137.824 180.152 137.633 179.961 137.442 179.77L138.015 179.26C138.079 179.387 138.206 179.515 138.397 179.578C138.589 179.642 138.716 179.706 138.843 179.706C138.971 179.706 139.034 179.706 139.098 179.706C139.162 179.706 139.289 179.706 139.353 179.578C139.417 179.578 139.48 179.451 139.544 179.387C139.544 179.324 139.608 179.26 139.608 179.133C139.608 179.005 139.608 178.878 139.48 178.75C139.353 178.687 139.289 178.623 139.098 178.559C138.971 178.559 138.78 178.432 138.652 178.368C138.461 178.368 138.334 178.241 138.206 178.177C138.079 178.113 137.952 177.986 137.824 177.795C137.697 177.667 137.697 177.476 137.697 177.221C137.697 176.967 137.697 176.839 137.824 176.648C137.952 176.457 138.015 176.33 138.143 176.266C138.27 176.139 138.461 176.075 138.652 176.011C138.843 175.947 139.034 175.947 139.225 175.947C139.417 175.947 139.671 175.947 139.862 176.075C140.053 176.202 140.244 176.266 140.436 176.393L139.926 176.967L139.735 177.03Z" fill="black"/>
<path d="M142.792 176.139H145.531V176.839H143.493V177.859H145.403V178.559H143.493V179.706H145.594V180.407H142.728V176.266L142.792 176.139Z" fill="black"/>
<path d="M147.441 178.113L146.04 176.139H146.996L147.951 177.667L148.906 176.139H149.798L148.46 178.113L149.989 180.279H149.034L147.951 178.496L146.868 180.279H145.977L147.441 178.113Z" fill="black"/>
<path d="M150.435 176.139H151.836C152.027 176.139 152.218 176.139 152.409 176.139C152.6 176.139 152.728 176.266 152.919 176.33C153.11 176.393 153.173 176.521 153.237 176.712C153.301 176.903 153.365 177.03 153.365 177.285C153.365 177.54 153.365 177.731 153.237 177.922C153.173 178.113 153.046 178.177 152.855 178.304C152.664 178.432 152.537 178.432 152.345 178.496C152.154 178.496 151.963 178.496 151.709 178.496H151.199V180.216H150.435V176.075V176.139ZM151.645 177.922C151.772 177.922 151.836 177.922 151.963 177.922C152.091 177.922 152.154 177.922 152.282 177.859C152.409 177.859 152.473 177.731 152.537 177.667C152.6 177.604 152.6 177.476 152.6 177.349C152.6 177.221 152.6 177.094 152.537 177.03C152.537 176.967 152.409 176.903 152.345 176.839C152.282 176.776 152.154 176.776 152.027 176.776C151.9 176.776 151.836 176.776 151.709 176.776H151.199V177.922H151.645Z" fill="black"/>
<path d="M154.001 176.139H156.74V176.839H154.702V177.859H156.613V178.559H154.702V179.706H156.804V180.407H153.938V176.266L154.001 176.139Z" fill="black"/>
<path d="M157.568 176.139H159.033C159.224 176.139 159.415 176.139 159.606 176.139C159.797 176.139 159.988 176.266 160.115 176.33C160.243 176.393 160.37 176.521 160.434 176.712C160.498 176.839 160.561 177.03 160.561 177.285C160.561 177.54 160.498 177.858 160.307 178.05C160.115 178.241 159.924 178.368 159.606 178.432L160.689 180.279H159.797L158.842 178.496H158.332V180.279H157.568V176.139ZM158.905 177.922C159.033 177.922 159.096 177.922 159.224 177.922C159.351 177.922 159.415 177.922 159.542 177.859C159.606 177.859 159.733 177.795 159.733 177.667C159.733 177.604 159.797 177.476 159.797 177.349C159.797 177.221 159.797 177.158 159.733 177.03C159.733 176.967 159.606 176.903 159.542 176.839C159.479 176.839 159.351 176.839 159.287 176.776C159.16 176.776 159.096 176.776 158.969 176.776H158.332V177.922H158.905Z" fill="black"/>
<path d="M162.026 176.839H160.752V176.139H164.064V176.839H162.791V180.343H162.026V176.839Z" fill="black"/>
<path d="M164.319 178.241C164.319 177.922 164.319 177.604 164.51 177.349C164.638 177.094 164.765 176.839 164.956 176.648C165.147 176.457 165.402 176.33 165.657 176.202C165.911 176.075 166.23 176.075 166.548 176.075C166.867 176.075 167.185 176.075 167.44 176.202C167.695 176.33 167.949 176.457 168.14 176.648C168.332 176.839 168.459 177.094 168.586 177.349C168.714 177.604 168.777 177.922 168.777 178.241C168.777 178.559 168.777 178.878 168.586 179.133C168.459 179.387 168.332 179.642 168.14 179.833C167.949 180.024 167.695 180.152 167.44 180.279C167.185 180.407 166.867 180.47 166.548 180.47C166.23 180.47 165.911 180.47 165.657 180.343C165.402 180.216 165.147 180.088 164.956 179.897C164.765 179.706 164.638 179.451 164.51 179.196C164.383 178.941 164.319 178.623 164.319 178.304V178.241ZM165.083 178.241C165.083 178.496 165.083 178.687 165.211 178.878C165.274 179.069 165.402 179.26 165.529 179.387C165.657 179.515 165.784 179.642 165.975 179.706C166.166 179.77 166.357 179.833 166.548 179.833C166.739 179.833 166.93 179.833 167.121 179.706C167.312 179.642 167.44 179.515 167.567 179.387C167.695 179.26 167.758 179.069 167.886 178.878C167.949 178.687 168.013 178.496 168.013 178.241C168.013 177.986 168.013 177.859 167.886 177.667C167.822 177.476 167.695 177.349 167.567 177.221C167.44 177.094 167.312 176.967 167.121 176.903C166.93 176.839 166.739 176.776 166.548 176.776C166.357 176.776 166.166 176.776 165.975 176.903C165.784 176.967 165.657 177.094 165.529 177.221C165.402 177.349 165.338 177.54 165.211 177.667C165.147 177.859 165.083 178.05 165.083 178.241Z" fill="black"/>
<path d="M171.516 177.03C171.452 176.903 171.325 176.839 171.198 176.776C171.07 176.712 170.943 176.712 170.815 176.712C170.688 176.712 170.624 176.712 170.561 176.712C170.497 176.712 170.433 176.712 170.37 176.776C170.306 176.839 170.242 176.903 170.242 176.967C170.242 177.03 170.242 177.094 170.242 177.221C170.242 177.349 170.242 177.476 170.37 177.54C170.497 177.604 170.561 177.667 170.752 177.731C170.879 177.731 171.07 177.859 171.198 177.859C171.389 177.859 171.516 177.986 171.643 178.05C171.771 178.113 171.898 178.241 172.025 178.432C172.153 178.559 172.153 178.75 172.153 179.005C172.153 179.26 172.153 179.451 172.025 179.578C171.962 179.77 171.834 179.897 171.707 180.024C171.58 180.152 171.389 180.216 171.198 180.279C171.006 180.343 170.815 180.343 170.624 180.343C170.433 180.343 170.115 180.343 169.86 180.216C169.605 180.152 169.414 179.961 169.223 179.77L169.796 179.26C169.86 179.387 169.987 179.515 170.178 179.578C170.37 179.642 170.497 179.706 170.624 179.706C170.752 179.706 170.815 179.706 170.879 179.706C170.943 179.706 171.07 179.706 171.134 179.578C171.198 179.578 171.261 179.451 171.325 179.387C171.325 179.324 171.389 179.26 171.389 179.133C171.389 179.005 171.389 178.878 171.261 178.75C171.134 178.687 171.07 178.623 170.879 178.559C170.752 178.559 170.561 178.432 170.433 178.368C170.242 178.368 170.115 178.241 169.987 178.177C169.86 178.113 169.733 177.986 169.605 177.795C169.478 177.667 169.478 177.476 169.478 177.221C169.478 176.967 169.478 176.839 169.605 176.648C169.733 176.457 169.796 176.33 169.924 176.266C170.051 176.139 170.242 176.075 170.433 176.011C170.624 175.947 170.815 175.947 171.006 175.947C171.198 175.947 171.452 175.947 171.643 176.075C171.834 176.202 172.025 176.266 172.217 176.393L171.707 176.967L171.516 177.03Z" fill="black"/>
<path d="M174.573 176.139H177.312V176.839H175.274V177.859H177.184V178.559H175.274V179.706H177.375V180.407H174.509V176.266L174.573 176.139Z" fill="black"/>
<path d="M178.14 176.139H179.095L181.133 179.26V176.139H181.897V180.279H180.942L178.904 177.094V180.279H178.14V176.139Z" fill="black"/>
<path d="M184.572 176.139H185.719L186.801 179.069L187.948 176.139H189.094V180.279H188.394V176.839L187.12 180.279H186.61L185.337 176.839V180.279H184.636V176.139H184.572Z" fill="black"/>
<path d="M189.795 178.241C189.795 177.922 189.795 177.604 189.986 177.349C190.113 177.094 190.241 176.839 190.432 176.648C190.623 176.457 190.878 176.33 191.132 176.202C191.387 176.075 191.706 176.075 192.024 176.075C192.343 176.075 192.661 176.075 192.916 176.202C193.17 176.33 193.425 176.457 193.616 176.648C193.807 176.839 193.935 177.094 194.062 177.349C194.19 177.604 194.253 177.922 194.253 178.241C194.253 178.559 194.253 178.878 194.062 179.133C193.935 179.387 193.807 179.642 193.616 179.833C193.425 180.024 193.17 180.152 192.916 180.279C192.661 180.407 192.343 180.47 192.024 180.47C191.706 180.47 191.387 180.47 191.132 180.343C190.878 180.216 190.623 180.088 190.432 179.897C190.241 179.706 190.113 179.451 189.986 179.196C189.859 178.941 189.795 178.623 189.795 178.304V178.241ZM190.559 178.241C190.559 178.496 190.559 178.687 190.687 178.878C190.75 179.069 190.878 179.26 191.005 179.387C191.132 179.515 191.26 179.642 191.451 179.706C191.642 179.77 191.833 179.833 192.024 179.833C192.215 179.833 192.406 179.833 192.597 179.706C192.788 179.642 192.916 179.515 193.043 179.387C193.17 179.26 193.234 179.069 193.362 178.878C193.425 178.687 193.489 178.496 193.489 178.241C193.489 177.986 193.489 177.859 193.362 177.667C193.298 177.476 193.17 177.349 193.043 177.221C192.916 177.094 192.788 176.967 192.597 176.903C192.406 176.839 192.215 176.776 192.024 176.776C191.833 176.776 191.642 176.776 191.451 176.903C191.26 176.967 191.132 177.094 191.005 177.221C190.878 177.349 190.814 177.54 190.687 177.667C190.623 177.859 190.559 178.05 190.559 178.241Z" fill="black"/>
<path d="M194.444 176.139H195.272L196.418 179.26L197.565 176.139H198.393L196.737 180.279H196.1L194.444 176.139Z" fill="black"/>
<path d="M198.839 176.139H199.603V180.279H198.839V176.139Z" fill="black"/>
<path d="M200.431 176.139H201.195V179.642H202.978V180.343H200.495V176.202L200.431 176.139Z" fill="black"/>
<path d="M203.488 176.139H204.252V180.279H203.488V176.139Z" fill="black"/>
<path d="M205.144 176.139H206.8C207.055 176.139 207.309 176.139 207.564 176.266C207.819 176.33 208.074 176.457 208.265 176.648C208.456 176.839 208.647 177.03 208.711 177.285C208.838 177.54 208.902 177.859 208.902 178.177C208.902 178.496 208.838 178.814 208.711 179.133C208.583 179.387 208.392 179.578 208.201 179.77C208.01 179.961 207.755 180.088 207.501 180.152C207.246 180.215 206.991 180.279 206.736 180.279H205.208V176.139H205.144ZM206.418 179.642C206.673 179.642 206.864 179.642 207.055 179.578C207.246 179.515 207.437 179.451 207.564 179.324C207.692 179.196 207.819 179.069 207.946 178.878C208.01 178.687 208.074 178.496 208.074 178.241C208.074 177.986 208.074 177.795 207.946 177.604C207.883 177.413 207.755 177.285 207.628 177.158C207.501 177.03 207.309 176.967 207.118 176.903C206.927 176.903 206.736 176.839 206.482 176.839H205.781V179.642H206.354H206.418Z" fill="black"/>
<path d="M210.94 176.139H211.577L213.36 180.279H212.532L212.15 179.324H210.367L209.984 180.279H209.156L210.94 176.139ZM211.895 178.687L211.258 176.967L210.621 178.687H211.895Z" fill="black"/>
<path d="M213.869 176.139H215.525C215.78 176.139 216.035 176.139 216.29 176.266C216.544 176.33 216.799 176.457 216.99 176.648C217.181 176.839 217.372 177.03 217.436 177.285C217.563 177.54 217.627 177.859 217.627 178.177C217.627 178.496 217.563 178.814 217.436 179.133C217.309 179.387 217.118 179.578 216.926 179.77C216.735 179.961 216.481 180.088 216.226 180.152C215.971 180.215 215.716 180.279 215.462 180.279H213.933V176.139H213.869ZM215.143 179.642C215.398 179.642 215.589 179.642 215.78 179.578C215.971 179.578 216.162 179.451 216.29 179.324C216.417 179.196 216.544 179.069 216.672 178.878C216.735 178.687 216.799 178.496 216.799 178.241C216.799 177.986 216.799 177.795 216.672 177.604C216.608 177.413 216.481 177.285 216.353 177.158C216.226 177.03 216.035 176.967 215.844 176.903C215.653 176.839 215.462 176.839 215.207 176.839H214.506V179.642H215.08H215.143Z" fill="black"/>
<path d="M137.187 102.116C135.595 98.8032 130.5 91.4774 117.953 93.5159C117.507 93.5796 117.061 93.7707 116.679 94.0255C114.832 95.2995 109.482 99.695 107.381 107.913C107.126 108.805 107.508 109.76 108.272 110.333C110.82 112.117 114.132 111.416 116.934 110.843C120.692 110.079 124.386 109.187 128.08 108.04C130.882 107.148 133.812 106.384 136.359 104.919C137.315 104.345 137.76 103.135 137.251 102.116H137.187Z" fill="#FFD500"/>
</g>
<defs>
<clipPath id="clip0_3_666">
<rect width="425" height="235" fill="white"/>
</clipPath>
</defs>
</svg>
