<svg width="3" height="3" viewBox="-8 -8 42 42" fill="none" xmlns="http://www.w3.org/2000/svg" xmlns:xlink="http://www.w3.org/1999/xlink">
<path d="M14.0639 1.08685C14.0639 0.799058 14.1782 0.523055 14.3817 0.319556C14.5852 0.116057 14.8612 0.00173289 15.149 0.00173289C18.0259 0.00489231 20.7841 1.14915 22.8183 3.18345C24.8526 5.21776 25.9968 7.97596 26 10.8529C26 11.1407 25.8857 11.4167 25.6822 11.6202C25.4787 11.8237 25.2027 11.938 24.9149 11.938C24.6271 11.938 24.3511 11.8237 24.1476 11.6202C23.9441 11.4167 23.8298 11.1407 23.8298 10.8529C23.8272 8.55136 22.9118 6.34483 21.2844 4.7174C19.657 3.08997 17.4505 2.17455 15.149 2.17196C14.8612 2.17196 14.5852 2.05764 14.3817 1.85414C14.1782 1.65064 14.0639 1.37464 14.0639 1.08685ZM15.149 6.51243C16.3001 6.51243 17.4041 6.96972 18.2181 7.78372C19.0321 8.59771 19.4894 9.70173 19.4894 10.8529C19.4894 11.1407 19.6037 11.4167 19.8072 11.6202C20.0107 11.8237 20.2867 11.938 20.5745 11.938C20.8623 11.938 21.1383 11.8237 21.3418 11.6202C21.5453 11.4167 21.6596 11.1407 21.6596 10.8529C21.6579 9.12668 20.9714 7.47166 19.7508 6.25104C18.5302 5.03042 16.8752 4.34392 15.149 4.3422C14.8612 4.3422 14.5852 4.45652 14.3817 4.66002C14.1782 4.86352 14.0639 5.13952 14.0639 5.42731C14.0639 5.7151 14.1782 5.99111 14.3817 6.1946C14.5852 6.3981 14.8612 6.51243 15.149 6.51243ZM25.0158 18.1655C25.6446 18.7961 25.9978 19.6503 25.9978 20.5408C25.9978 21.4313 25.6446 22.2855 25.0158 22.9161L24.0284 24.0544C15.1414 32.5628 -6.48464 10.9419 1.89233 2.02656L3.1402 0.941443C3.77147 0.330173 4.61803 -0.00797989 5.49671 0.000143029C6.3754 0.00826595 7.21556 0.362011 7.83543 0.984848C7.86906 1.01849 9.87975 3.63036 9.87975 3.63036C10.4764 4.25715 10.8085 5.08976 10.8071 5.95512C10.8057 6.82047 10.4708 7.65199 9.87216 8.27683L8.61561 9.85675C9.311 11.5464 10.3334 13.082 11.6241 14.3753C12.9147 15.6686 14.4482 16.6941 16.1364 17.3929L17.7261 16.1287C18.351 15.5305 19.1824 15.1961 20.0475 15.1948C20.9125 15.1936 21.7448 15.5258 22.3714 16.1222C22.3714 16.1222 24.9822 18.1318 25.0158 18.1655ZM23.5227 19.7432C23.5227 19.7432 20.9261 17.7455 20.8924 17.7119C20.6689 17.4903 20.3668 17.3659 20.052 17.3659C19.7372 17.3659 19.4352 17.4903 19.2116 17.7119C19.1823 17.7423 16.9937 19.4861 16.9937 19.4861C16.8462 19.6035 16.6707 19.6804 16.4844 19.7093C16.2981 19.7383 16.1075 19.7182 15.9314 19.651C13.7443 18.8367 11.7578 17.5619 10.1064 15.9129C8.45494 14.2639 7.17721 12.2792 6.35969 10.0933C6.2872 9.91476 6.26357 9.72013 6.29122 9.52942C6.31888 9.33871 6.39681 9.1588 6.51703 9.00819C6.51703 9.00819 8.26078 6.81843 8.29008 6.79022C8.51173 6.56667 8.6361 6.26461 8.6361 5.9498C8.6361 5.63499 8.51173 5.33292 8.29008 5.10937C8.25644 5.07682 6.25877 2.47797 6.25877 2.47797C6.03188 2.27452 5.73576 2.16556 5.43111 2.17343C5.12646 2.18129 4.83636 2.30539 4.62027 2.52029L3.37241 3.6054C-2.74973 10.9668 15.991 28.6683 22.442 22.5721L23.4305 21.4328C23.6621 21.2182 23.8013 20.922 23.8185 20.6067C23.8357 20.2914 23.7296 19.9818 23.5227 19.7432Z" fill="black"/>
</svg>
